<svg viewBox="0 0 128 128" xmlns="http://www.w3.org/2000/svg"><rect width="128" height="128" rx="20" fill="#f97316"/><path fill="#fff" d="M53.862 20.173c-3.272 4.332-.749 6.469-.504 10.637-1.126 4.698-6.887 2.94-11.031 3.603a242.32 242.32 0 00-15.997 1.805c-4.212.718-5.787 1.62-4.46 6.082 1.91 4.196 5.517 9.425 11.355 6.084 9.06-1.562 15.779-1.792 25.005-2.164 6.342.06 2.769 3.001 1.41 4.994-1.988 1.382-5.43 5.921-8.706 1.98-3.018-3.692-13.937.88-11.928 5.33 3.272 1.51 10.508 3.976 6.428 8.254-2.967 4.304-2.46 5.777-8.098 3.975-1.993-.854-9.513-3.784-8.647 3.388.578 6.205 7.953 11.181 13.555 8.793 5.935-1.198 7.677-8.456 11.805-11.834 5.155-2.385 8.058 1.73 11.211 3.937 3.69 3.395 7.769 5.489 12 8.426 1.811 4.909 1.148 10.153 2.396 15.113 1.743 4.353 12.447 10.49 13.626 2.66-2.304-9.594-4.924-13.843-1.473-11.501 5.514 4.787 15.254-3.46 8.455-9.089-3.793-2.29-10.995-4.064-11.45-8.697-1.593-4.252-3.1-8.542-4.759-12.786-1.406-3.892-4.819-6.835-8.126-9.68-3.037-2.477-.041-3.947 3.131-3.03 5.882.167 11.82 0 17.593-1.018 3.844-2.458 8.408-9.292 3.638-12.187-4.48-1.489-9.504-1.452-14.271-1.5-5.423.249-10.892.423-16.288.685-5.541.136-7.135-1.906-4.839-6.354 1.297-4.157-5.703-9.471-11.031-5.906zm13.957 35.024c2.165 4.377 4.249 8.807 5.557 13.422-2.843-2.73-8.479-3.566-9.43-7.468.4-2.255 2.959-3.816 3.873-5.954z"/></svg>