<svg viewBox="0 0 128 128" xmlns="http://www.w3.org/2000/svg"><path d="M16 0C7.136 0 0 7.136 0 16v96c0 8.864 7.136 16 16 16h96c8.864 0 16-7.136 16-16V16c0-8.864-7.136-16-16-16H16zm42.016 19.008c4.155.185 7.85 3.952 6.877 7.07-2.296 4.448-.702 6.492 4.84 6.356 5.395-.262 10.864-.437 16.287-.686 4.767.048 9.791.011 14.271 1.5 4.77 2.895.205 9.73-3.639 12.188-5.773 1.018-11.71 1.184-17.591 1.017-3.172-.917-6.168.552-3.131 3.03 3.307 2.844 6.719 5.787 8.125 9.68 1.659 4.243 3.166 8.534 4.76 12.786.454 4.633 7.656 6.407 11.449 8.697 6.799 5.63-2.941 13.875-8.455 9.088-3.451-2.342-.832 1.908 1.472 11.502-1.179 7.83-11.882 1.693-13.625-2.66-1.248-4.96-.585-10.204-2.396-15.113-4.231-2.937-8.31-5.03-12-8.426-3.153-2.207-6.056-6.322-11.211-3.937-4.128 3.378-5.87 10.636-11.805 11.834-5.602 2.388-12.977-2.588-13.555-8.793-.866-7.172 6.654-4.241 8.647-3.387 5.638 1.802 5.13.327 8.098-3.977 4.08-4.278-3.156-6.744-6.428-8.254-2.01-4.45 8.91-9.022 11.928-5.33 3.276 3.941 6.719-.596 8.707-1.978 1.359-1.993 4.931-4.934-1.41-4.994-9.227.372-15.946.602-25.006 2.164-5.838 3.34-9.446-1.888-11.356-6.084-1.327-4.462.25-5.364 4.461-6.082a242.32 242.32 0 0115.996-1.807c4.144-.663 9.905 1.097 11.031-3.601-.245-4.168-2.768-6.305.504-10.637a6.825 6.825 0 014.155-1.166zm9.802 36.19c-.914 2.137-3.473 3.697-3.873 5.952.951 3.902 6.589 4.74 9.432 7.47-1.308-4.616-3.394-9.046-5.559-13.423z" fill="#f97316"/></svg>