<svg viewBox="0 0 300 300" xmlns="http://www.w3.org/2000/svg" fill="gray"><path d="M160.584 118.74c-4.65-11.583 9.26-16.987 14.748-24.764 6.425-9.192-2.344-18.95-9.123-24.793-6.705-5.754-13.161-14.947-10.187-24.005 5.291-9.843 17.172-3.131 13.273 6.615 4.863 8.288 13.438-4.833 7.32-10.07-4.996-10.428 11.792-24.199 13.626-8.658-2.372 7.636 2.019 29.403 11.425 17.255 1.185-7.92 12.674-16.3 14.005-3.384 2.828 15.121-11.6 23.375-21.968 30.139-5.875 10.454 5.679 22.975 16.356 23.124 10.176 10.12-8.186 17.62-14.034 7.456-12.161-5.407-24.425 2.086-33.114 10.115l-1.144.532z"/><path d="M161.24 137.551c3.756-12.97 16.77-23.986 30.735-22.074 8.37 3.62 28.398 11.846 18.09 22.86-11.57 4.2-19.146-16.371-31.12-9.048-5.31 3.461-10.183 14.332-17.705 8.262zM84.42 142.675c3.756-14.06 19.5-17.733 30.877-23.568 11.225-5.758 25.347 19.572 8.37 18.308-11.623-4.648-24.977-1.965-31.982 8.01-2.659.641-5.943-.14-7.265-2.75z"/><path d="M100.094 160.034c5.101-14.454 22.884-5.507 33.32-11.075 13.666-7.883 11.44-31.399-3.215-37.012-11.674-6.753-26.39-.968-35.1 8.025-14.723-7.828 3.625-22.963 13.415-22.971 8.724-10.765-1.526-25.954-13.204-29.003-9.78-6.643-13.426-32.44 1.531-32.009 6.654 5.346-2.027 25.004 12.392 20.441 11.612-7.521-4.26-22.357 3.19-31.838 10.724-9.761 17.596 10.44 10.236 17.761-3.09 6.383 6.423 19.863 9.058 8.394-3.032-10.516 12.516-20.792 15.666-6.737 2.72 13.091-6.64 25.556-17.415 31.839-11.626 5.66-7.448 27.621 6.234 23.515 9.215-5.399 8.685-25.513 22.433-22.133 11.626 6.777-3.537 15.362-4.036 23.948-2.08 10.35.116 21.028-2.047 31.386-.032 15.53 18.782 18.59 30.017 12.762 7.7-4.507 23.387 5.479 10.637 10.691-13.295 2.3-26.957.34-40.328 2.788-17.555 1.287-35.188 2.312-52.784 1.228zM132.59 281.992c7.537-17.448 26.562-27.011 32.733-45.264 11.79-8.602-.976-29.712-14.128-24.235-11.678-5.417-4.046-23.579-16.05-28.442-16.938-1.476-33.858 2.21-50.786 2.706-14.15-3.671.814-21.885 10.727-13.681 24.901 3.166 50.121.955 75.106-.211 15.945-.964 31.886-2.063 47.856-2.515 12.287 9.449-8.91 22.09-17.677 14.588-10.672-2.602-21.778.053-32.625-1.006-14.636-1.565-9.618 18.292 1.847 18.985 9.075 2.216 18.383 9.224 15.707 19.69-2.107 13.589-11.134 24.668-17.802 36.293-7.477 10.856-17.143 20.751-29.455 25.961-2.148.474-4.878-.545-5.453-2.87z"/></svg>